<svg width="326" height="250" viewBox="0 0 326 350" fill="none" xmlns="http://www.w3.org/2000/svg">
<path fill-rule="evenodd" clip-rule="evenodd" d="M86.3096 252.505C89.0488 273.13 91.4658 300.603 93.5605 334.924C133.36 342.498 166.312 346.284 192.416 346.284C209.334 346.284 225.367 344.592 240.514 341.208C255.821 337.825 269.84 331.943 282.569 323.564C295.299 315.024 305.128 304.229 312.057 291.177C318.985 277.964 322.45 264.106 322.45 249.604C322.45 243.965 321.886 238.728 320.758 233.894C319.63 228.899 317.857 223.984 315.44 219.15C313.185 214.316 309.881 208.999 305.531 203.198C301.18 197.397 296.024 191.516 290.062 185.554C284.1 179.592 278.541 174.517 273.385 170.327L255.982 156.55C243.575 146.882 234.471 139.631 228.67 134.797C222.87 129.802 218.197 125.291 214.652 121.262C211.107 117.073 208.69 113.447 207.401 110.386C206.112 107.324 205.467 104.182 205.467 100.959C205.467 94.0308 209.576 88.23 217.794 83.5571C226.173 78.8843 236.646 76.5479 249.215 76.5479C258.077 76.5479 268.631 77.7563 280.877 80.1733C293.124 82.4292 306.659 86.5381 321.483 92.5C319.066 69.2969 317.535 53.103 316.891 43.9185C316.246 34.5728 315.682 24.3408 315.199 13.2227C283.133 6.93848 253.485 3.79639 226.253 3.79639C212.396 3.79639 198.941 4.92432 185.89 7.18018C172.838 9.2749 160.592 13.3032 149.151 19.2651C137.711 25.2271 128.526 32.3169 121.598 40.5347C114.669 48.7524 109.432 57.6147 105.887 67.1216C102.503 76.4673 100.812 86.0547 100.812 95.8838C100.812 104.102 101.859 111.917 103.954 119.329C106.209 126.58 109.674 133.75 114.347 140.84C119.181 147.93 125.868 155.583 134.408 163.801C138.597 167.83 146.009 174.355 156.644 183.379L202.083 223.018C206.273 226.724 209.496 230.188 211.751 233.411C214.007 236.472 215.538 239.292 216.344 241.87C217.149 244.287 217.552 246.865 217.552 249.604C217.552 257.661 213.363 263.784 204.984 267.974C196.766 272.002 185.648 274.016 171.629 274.016C160.995 274.016 148.587 272.485 134.408 269.424C120.389 266.201 104.356 260.562 86.3096 252.505ZM120.5 339C144.5 344 290.458 362 317.5 273.5C344.541 185 145 89.5001 104 74.4999C160 117 290 242.5 276.093 283C262.186 323.5 160.5 341.5 120.5 339Z" fill="#34C47C"/>
<path d="M93.5605 334.924L90.5661 335.107L90.7082 337.435L92.9998 337.871L93.5605 334.924ZM86.3096 252.505L87.5325 249.765L82.6286 247.576L83.3357 252.9L86.3096 252.505ZM240.514 341.208L239.866 338.279L239.86 338.281L240.514 341.208ZM282.569 323.564L284.219 326.07L284.23 326.063L284.241 326.056L282.569 323.564ZM312.057 291.177L314.706 292.583L314.71 292.577L314.714 292.57L312.057 291.177ZM320.758 233.894L317.831 234.555L317.834 234.565L317.836 234.576L320.758 233.894ZM315.44 219.15L312.722 220.419L312.739 220.456L312.757 220.492L315.44 219.15ZM273.385 170.327L275.277 167.999L275.262 167.987L275.247 167.975L273.385 170.327ZM255.982 156.55L257.845 154.198L257.835 154.191L257.826 154.184L255.982 156.55ZM228.67 134.797L226.713 137.071L226.731 137.087L226.75 137.102L228.67 134.797ZM214.652 121.262L212.362 123.2L212.38 123.222L212.4 123.244L214.652 121.262ZM217.794 83.5571L216.333 80.937L216.322 80.9431L216.311 80.9493L217.794 83.5571ZM280.877 80.1733L280.297 83.1166L280.315 83.1202L280.334 83.1237L280.877 80.1733ZM321.483 92.5L320.364 95.2833L324.983 97.141L324.467 92.1892L321.483 92.5ZM316.891 43.9185L313.898 44.1249L313.898 44.1285L316.891 43.9185ZM315.199 13.2227L318.196 13.0923L318.093 10.7329L315.776 10.2787L315.199 13.2227ZM185.89 7.18018L186.365 10.1423L186.383 10.1394L186.401 10.1363L185.89 7.18018ZM105.887 67.1216L103.076 66.0734L103.071 66.0868L103.066 66.1003L105.887 67.1216ZM103.954 119.329L101.067 120.144L101.077 120.182L101.089 120.22L103.954 119.329ZM114.347 140.84L111.842 142.491L111.855 142.51L111.868 142.53L114.347 140.84ZM134.408 163.801L132.328 165.963L132.328 165.964L134.408 163.801ZM156.644 183.379L158.616 181.118L158.601 181.105L158.585 181.091L156.644 183.379ZM202.083 223.018L204.071 220.771L204.063 220.764L204.056 220.757L202.083 223.018ZM211.751 233.411L209.294 235.131L209.315 235.161L209.336 235.19L211.751 233.411ZM216.344 241.87L213.48 242.765L213.489 242.792L213.498 242.819L216.344 241.87ZM204.984 267.974L206.304 270.667L206.315 270.662L206.326 270.657L204.984 267.974ZM134.408 269.424L133.736 272.348L133.755 272.352L133.775 272.356L134.408 269.424ZM317.5 273.5L314.631 272.623L317.5 273.5ZM120.5 339L120.687 336.006L119.888 341.937L120.5 339ZM104 74.4999L105.031 71.6825L102.186 76.8896L104 74.4999ZM276.093 283L273.256 282.025L276.093 283ZM96.555 334.742C94.4583 300.389 92.0361 272.836 89.2835 252.11L83.3357 252.9C86.0615 273.424 88.4733 300.818 90.5661 335.107L96.555 334.742ZM192.416 343.284C166.573 343.284 133.825 339.532 94.1213 331.977L92.9998 337.871C132.895 345.463 166.051 349.284 192.416 349.284V343.284ZM239.86 338.281C224.946 341.612 209.134 343.284 192.416 343.284V349.284C209.535 349.284 225.788 347.572 241.168 344.136L239.86 338.281ZM280.92 321.059C268.505 329.231 254.827 334.972 239.866 338.279L241.161 344.138C256.815 340.677 271.175 334.656 284.219 326.07L280.92 321.059ZM309.407 289.77C302.719 302.369 293.233 312.798 280.898 321.073L284.241 326.056C297.365 317.251 307.537 306.088 314.706 292.583L309.407 289.77ZM319.45 249.604C319.45 263.607 316.11 276.988 309.4 289.784L314.714 292.57C321.861 278.94 325.45 264.606 325.45 249.604H319.45ZM317.836 234.576C318.906 239.158 319.45 244.164 319.45 249.604H325.45C325.45 243.766 324.866 238.298 323.679 233.212L317.836 234.576ZM312.757 220.492C315.072 225.122 316.76 229.808 317.831 234.555L323.684 233.233C322.5 227.99 320.643 222.847 318.124 217.809L312.757 220.492ZM303.131 204.998C307.398 210.688 310.578 215.826 312.722 220.419L318.159 217.882C315.791 212.807 312.365 207.31 307.931 201.398L303.131 204.998ZM287.941 187.676C293.818 193.553 298.878 199.328 303.131 204.998L307.931 201.398C303.483 195.467 298.23 189.479 292.183 183.433L287.941 187.676ZM271.493 172.655C276.551 176.765 282.033 181.768 287.941 187.676L292.183 183.433C286.167 177.416 280.531 172.268 275.277 167.999L271.493 172.655ZM254.12 158.902L271.523 172.679L275.247 167.975L257.845 154.198L254.12 158.902ZM226.75 137.102C232.59 141.969 241.727 149.245 254.138 158.917L257.826 154.184C245.424 144.519 236.352 137.294 230.591 132.493L226.75 137.102ZM212.4 123.244C216.065 127.41 220.847 132.02 226.713 137.071L230.628 132.524C224.892 127.585 220.328 123.171 216.904 119.28L212.4 123.244ZM204.636 111.55C206.095 115.015 208.731 118.909 212.362 123.2L216.942 119.324C213.483 115.237 211.285 111.88 210.166 109.222L204.636 111.55ZM202.467 100.959C202.467 104.594 203.197 108.131 204.636 111.55L210.166 109.222C209.027 106.517 208.467 103.77 208.467 100.959H202.467ZM216.311 80.9493C207.542 85.9354 202.467 92.5705 202.467 100.959H208.467C208.467 95.491 211.61 90.5245 219.277 86.165L216.311 80.9493ZM249.215 73.5479C236.289 73.5479 225.276 75.9496 216.333 80.937L219.255 86.1772C227.07 81.819 237.004 79.5479 249.215 79.5479V73.5479ZM281.458 77.2301C269.092 74.7894 258.333 73.5479 249.215 73.5479V79.5479C257.821 79.5479 268.171 80.7233 280.297 83.1166L281.458 77.2301ZM322.602 89.7167C307.642 83.6998 293.91 79.5237 281.421 77.223L280.334 83.1237C292.337 85.3347 305.676 89.3764 320.364 95.2833L322.602 89.7167ZM313.898 44.1285C314.546 53.3696 316.082 69.6096 318.499 92.8108L324.467 92.1892C322.05 68.9842 320.524 52.8365 319.883 43.7084L313.898 44.1285ZM312.202 13.353C312.686 24.492 313.251 34.7496 313.898 44.1249L319.884 43.7121C319.241 34.3959 318.678 24.1897 318.196 13.0923L312.202 13.353ZM226.253 6.79639C253.257 6.79639 282.71 9.91259 314.622 16.1667L315.776 10.2787C283.557 3.96436 253.712 0.796387 226.253 0.796387V6.79639ZM186.401 10.1363C199.276 7.91096 212.559 6.79639 226.253 6.79639V0.796387C212.233 0.796387 198.607 1.93767 185.379 4.22401L186.401 10.1363ZM150.538 21.9256C161.686 16.1161 173.623 12.1873 186.365 10.1423L185.414 4.21808C172.053 6.36255 159.498 10.4903 147.765 16.6047L150.538 21.9256ZM123.891 42.4685C130.523 34.6032 139.376 27.7421 150.538 21.9256L147.765 16.6047C136.046 22.712 126.53 30.0306 119.304 38.6009L123.891 42.4685ZM108.698 68.1697C112.116 59.0044 117.171 50.4387 123.891 42.4685L119.304 38.6009C112.167 47.0662 106.749 56.2251 103.076 66.0734L108.698 68.1697ZM103.812 95.8838C103.812 86.4069 105.441 77.1649 108.708 68.1429L103.066 66.1003C99.5654 75.7697 97.8115 85.7025 97.8115 95.8838H103.812ZM106.841 118.513C104.826 111.383 103.812 103.844 103.812 95.8838H97.8115C97.8115 104.359 98.8921 112.45 101.067 120.144L106.841 118.513ZM116.852 139.189C112.316 132.307 108.981 125.39 106.818 118.437L101.089 120.22C103.438 127.769 107.032 135.193 111.842 142.491L116.852 139.189ZM136.488 161.64C128.045 153.515 121.509 146.019 116.825 139.15L111.868 142.53C116.853 149.841 123.691 157.652 132.328 165.963L136.488 161.64ZM158.585 181.091C147.951 172.068 140.602 165.596 136.487 161.639L132.328 165.964C136.592 170.063 144.068 176.643 154.703 185.666L158.585 181.091ZM204.056 220.757L158.616 181.118L154.672 185.64L200.111 225.278L204.056 220.757ZM214.209 231.69C211.774 228.212 208.37 224.573 204.071 220.771L200.096 225.265C204.176 228.874 207.217 232.164 209.294 235.131L214.209 231.69ZM219.207 240.975C218.271 237.979 216.546 234.86 214.167 231.631L209.336 235.19C211.469 238.084 212.805 240.605 213.48 242.765L219.207 240.975ZM220.552 249.604C220.552 246.567 220.105 243.667 219.19 240.921L213.498 242.819C214.194 244.908 214.552 247.163 214.552 249.604H220.552ZM206.326 270.657C210.853 268.393 214.437 265.512 216.886 261.933C219.352 258.33 220.552 254.183 220.552 249.604H214.552C214.552 253.083 213.658 256.026 211.934 258.545C210.193 261.089 207.493 263.365 203.642 265.29L206.326 270.657ZM171.629 277.016C185.885 277.016 197.515 274.976 206.304 270.667L203.663 265.28C196.017 269.028 185.411 271.016 171.629 271.016V277.016ZM133.775 272.356C148.093 275.448 160.721 277.016 171.629 277.016V271.016C161.268 271.016 149.082 269.523 135.041 266.491L133.775 272.356ZM85.0866 255.244C103.25 263.353 119.473 269.069 133.736 272.348L135.08 266.5C121.306 263.334 105.463 257.77 87.5325 249.765L85.0866 255.244ZM314.631 272.623C301.652 315.1 260.044 332.441 217.448 338.341C175.007 344.219 132.876 338.514 121.112 336.063L119.888 341.937C132.124 344.486 174.972 350.281 218.271 344.284C261.414 338.309 306.306 320.4 320.369 274.377L314.631 272.623ZM102.969 77.3172C123.246 84.7356 183.137 112.241 234.524 148.88C260.223 167.204 283.61 187.683 298.878 208.93C314.151 230.185 321.005 251.764 314.631 272.623L320.369 274.377C327.516 250.987 319.567 227.441 303.75 205.429C287.929 183.411 263.938 162.484 238.007 143.995C186.134 107.009 125.754 79.2643 105.031 71.6825L102.969 77.3172ZM278.93 283.974C280.97 278.036 280.267 270.914 277.849 263.253C275.414 255.541 271.124 246.918 265.503 237.745C254.256 219.391 237.42 198.421 218.486 177.488C180.612 135.613 133.976 93.4839 105.813 72.1101L102.186 76.8896C130.023 98.0161 176.387 139.887 214.036 181.512C232.865 202.329 249.421 222.984 260.387 240.88C265.873 249.832 269.896 257.99 272.127 265.059C274.375 272.18 274.693 277.839 273.256 282.025L278.93 283.974ZM120.313 341.994C140.726 343.27 176.497 339.331 208.911 330.008C225.135 325.341 240.674 319.283 253.095 311.753C265.456 304.259 275.12 295.07 278.93 283.974L273.256 282.025C270.112 291.179 261.851 299.428 249.984 306.622C238.178 313.779 223.187 319.658 207.252 324.242C175.346 333.419 140.273 337.23 120.687 336.006L120.313 341.994Z" fill="#34C47C"/>
<rect y="128" width="99" height="11" rx="4" fill="#34C47C"/>
<rect x="56" y="167" width="70" height="11" rx="4" fill="#34C47C"/>
<rect x="8" y="156" width="34" height="11" rx="4" fill="#34C47C"/>
<rect x="151" y="248" width="34" height="11" rx="4" fill="#34C47C"/>
<rect x="20" y="201" width="144" height="11" rx="4" fill="#34C47C"/>
<rect x="7" y="233" width="99" height="11" rx="4" fill="#34C47C"/>
</svg>
